<svg width="64" height="64" viewBox="0 0 64 64" fill="none" xmlns="http://www.w3.org/2000/svg">
<path d="M53.9683 57.1396C49.659 59.5691 42.2616 60.266 32.0319 60.266C21.8021 60.266 14.4047 59.5691 10.0954 57.1396C7.506 55.6818 6.19531 53.6934 6.19531 52.274C6.19531 51.462 6.62368 51.0017 7.58912 51.0017H56.4682C57.4273 51.0017 57.862 51.4684 57.862 52.274C57.8684 53.6934 56.5577 55.6818 53.9683 57.1396ZM56.4746 19.3853H7.58912C6.63008 19.3853 6.19531 18.8866 6.19531 17.9979C6.19531 12.6976 14.1681 3.34375 32.0319 3.34375C49.723 3.34375 57.8684 12.6976 57.8684 17.9979C57.8684 18.893 57.4337 19.3853 56.4746 19.3853Z" fill="#8B8D8F"/>
<path d="M16.6107 41.2453C16.4637 41.0152 16.4445 40.8617 16.4445 40.7978C16.4445 40.6188 16.5468 40.4845 16.745 40.2991C17.2117 39.8707 18.3562 38.7902 18.9827 37.8184C19.4623 37.0703 19.6605 36.3926 19.6605 35.83C19.6605 34.3914 18.3498 33.2661 16.924 33.2661C16.0097 33.2661 15.153 33.7776 14.5711 34.7239C13.7911 35.9834 12.8641 37.4411 12.2695 38.0166C12.1224 38.1636 12.0393 38.1956 11.9242 38.1956C11.726 38.1956 11.6429 38.0613 11.6429 37.8503V36.1944C11.6429 34.5704 10.6838 33.2661 8.93838 33.2661C7.18014 33.2661 6.23389 34.5768 6.23389 36.1944V46.3922C6.23389 48.0162 7.18014 49.3205 8.93838 49.3205C10.6774 49.3205 11.6429 48.0098 11.6429 46.3922V44.0393C11.6429 43.8411 11.726 43.6941 11.9242 43.6941C12.1863 43.6941 12.2567 43.9562 12.3206 44.0905C12.7042 44.9984 13.8103 46.9356 14.8397 48.0801C15.5366 48.8409 16.3997 49.3205 17.3076 49.3205C18.8485 49.3205 20.1464 47.9778 20.1464 46.5392C20.1464 45.6441 19.7628 44.9856 19.0339 44.1864C18.1068 43.1826 17.0071 41.8527 16.6107 41.2453Z" fill="#8B8D8F"/>
<path d="M37.2873 32.3198C39.8895 32.3198 41.5326 30.6639 41.5326 28.2471C41.5326 26.7062 40.6055 25.6449 38.745 25.6449H38.2143C37.2361 25.6449 36.4753 26.1116 36.4753 27.1538C36.4753 28.0809 37.2873 28.5284 37.901 28.5284C38.2143 28.5284 38.4125 28.6307 38.4125 28.8609C38.4125 29.1614 38.0673 29.3596 37.6645 29.3596C36.4177 29.3596 35.5738 28.4837 35.5738 26.8405C35.5738 25.0183 36.7374 24.3598 37.6325 24.3598C38.7258 24.3598 38.9112 24.9224 39.6721 24.9224C40.548 24.9224 41.149 24.1935 41.149 23.4327C41.149 22.8701 40.8996 22.4417 40.516 22.1412C39.8191 21.6297 38.8409 21.2461 37.3832 21.2461C34.8129 21.2461 32.3066 22.934 32.3066 26.8405C32.313 30.5808 34.8193 32.3198 37.2873 32.3198Z" fill="#8B8D8F"/>
<path d="M8.13897 32.2174H10.479C12.6848 32.2174 14.0275 30.7404 14.0275 28.9055C14.0275 27.4286 13.1516 26.7508 12.947 26.5846C12.8638 26.5207 12.7807 26.4503 12.7807 26.3864C12.7807 26.3033 12.8319 26.2713 12.915 26.169C13.2283 25.8046 13.548 25.2228 13.548 24.3788C13.548 22.3904 12.2053 21.3354 10.1146 21.3354H8.13897C6.82828 21.3354 6.20171 22.0963 6.20171 23.1257V30.4335C6.19531 31.4565 6.82828 32.2174 8.13897 32.2174ZM9.11719 24.187C9.11719 23.9696 9.25146 23.8034 9.53278 23.8034H9.75016C10.4598 23.8034 10.6772 24.3021 10.6772 24.7305C10.6772 25.1269 10.4598 25.6895 9.75016 25.6895H9.53278C9.25146 25.6895 9.11719 25.5233 9.11719 25.3059V24.187ZM9.11719 28.0615C9.11719 27.8441 9.25146 27.6779 9.53278 27.6779H9.83328C10.6325 27.6779 10.8626 28.2086 10.8626 28.6881C10.8626 29.1165 10.6325 29.7303 9.83328 29.7303H9.53278C9.25146 29.7303 9.11719 29.564 9.11719 29.3466V28.0615Z" fill="#8B8D8F"/>
<path d="M51.4302 32.3004C52.4916 32.3004 53.0734 31.5076 53.0734 30.5102V28.7583C53.0734 28.541 53.1757 28.445 53.3355 28.445C53.5337 28.445 53.5977 28.5601 53.636 28.7583C53.7831 29.6023 54.1859 30.7467 54.6334 31.3222C55.1961 32.0702 55.7267 32.3004 56.2574 32.3004C57.1205 32.3004 57.8686 31.6227 57.8686 30.7787C57.8686 30.2161 57.6384 29.8005 57.3379 29.4233C56.7753 28.7136 56.4236 28.2468 56.2126 27.6714C56.1615 27.5372 56.1935 27.4221 56.3469 27.307C56.8584 26.9106 57.4594 26.0347 57.4594 24.6409C57.4594 22.5374 55.7203 21.3481 53.6104 21.3481H51.7371C50.4264 21.3481 49.7999 22.109 49.7999 23.1384V30.523C49.7935 31.5076 50.3689 32.3004 51.4302 32.3004ZM52.8944 24.4746C52.8944 24.2572 53.0286 24.091 53.3099 24.091H53.5401C54.237 24.091 54.4544 24.5897 54.4544 25.0181C54.4544 25.4337 54.237 25.9771 53.5401 25.9771H53.3099C53.0286 25.9771 52.8944 25.8109 52.8944 25.5935V24.4746Z" fill="#8B8D8F"/>
<path d="M24.1744 33.2661C22.3203 33.2661 21.3037 34.6535 21.3037 36.3926V46.194C21.3037 47.933 22.3139 49.3205 24.1744 49.3205C26.0286 49.3205 27.0452 47.933 27.0452 46.194V36.3926C27.0388 34.6535 26.0286 33.2661 24.1744 33.2661Z" fill="#8B8D8F"/>
<path d="M53.6554 39.6406H52.8434C51.3856 39.6406 50.254 40.3183 50.254 41.808C50.254 43.1635 51.4815 43.8092 52.3958 43.8092C52.8434 43.8092 53.1567 43.9435 53.1567 44.2887C53.1567 44.7171 52.626 44.9984 52.0634 44.9984C50.19 44.9984 48.9113 43.7261 48.9113 41.3541C48.9113 38.7199 50.6504 37.7609 51.993 37.7609C53.6362 37.7609 53.8983 38.592 55.0428 38.592C56.3663 38.592 57.2614 37.5179 57.2614 36.4246C57.2614 35.6126 56.8969 34.986 56.3151 34.5513C55.3049 33.8032 53.7768 33.2598 51.6222 33.2598C47.7605 33.2598 43.9946 35.6957 43.9946 41.3541C43.9946 46.7695 47.7605 49.3013 51.4751 49.3013C55.3689 49.3013 57.8432 46.9037 57.8432 43.3936C57.8496 41.1751 56.4558 39.6406 53.6554 39.6406Z" fill="#8B8D8F"/>
<path d="M47.3895 32.2174C48.3165 32.2174 49.0454 31.6739 49.0454 30.6765C49.0454 29.6983 48.3165 29.1548 47.3895 29.1548H45.8998C45.6184 29.1548 45.4842 28.9886 45.4842 28.7712V28.4579C45.4842 28.2405 45.6184 28.0743 45.8998 28.0743H47.0442C47.8434 28.0743 48.47 27.5948 48.47 26.7508C48.47 25.9069 47.837 25.4274 47.0442 25.4274H45.8998C45.6184 25.4274 45.4842 25.2611 45.4842 25.0437V24.7816C45.4842 24.5642 45.6184 24.398 45.8998 24.398H47.3895C48.3165 24.398 49.0454 23.8545 49.0454 22.8571C49.0454 21.8789 48.3165 21.3354 47.3895 21.3354H44.2566C42.9459 21.3354 42.3193 22.0963 42.3193 23.1257V30.4272C42.3193 31.4501 42.9523 32.2174 44.2566 32.2174H47.3895Z" fill="#8B8D8F"/>
<path d="M18.8996 32.3007C21.5849 32.3007 23.0107 30.6959 23.0107 28.6755V23.0939C23.0107 22.1029 22.4289 21.3037 21.3676 21.3037C20.3062 21.3037 19.7244 22.0965 19.7244 23.0939V28.4901C19.7244 28.8865 19.4942 29.3533 18.8932 29.3533C18.2922 29.3533 18.094 28.8865 18.094 28.4901V23.0939C18.094 22.1029 17.4994 21.3037 16.4381 21.3037C15.3767 21.3037 14.7949 22.0965 14.7949 23.0939V28.6755C14.8013 30.6959 16.2143 32.3007 18.8996 32.3007Z" fill="#8B8D8F"/>
<path d="M30.5425 32.3004C31.4056 32.3004 32.1537 31.6227 32.1537 30.7787C32.1537 30.2161 31.9235 29.8005 31.623 29.4233C31.1435 28.7967 30.7087 28.2468 30.4977 27.6714C30.4466 27.5372 30.4786 27.4221 30.632 27.307C31.1435 26.9106 31.7445 26.0347 31.7445 24.6409C31.7445 22.5374 30.0054 21.3481 27.8955 21.3481H26.0222C24.7115 21.3481 24.085 22.109 24.085 23.1384V30.523C24.085 31.514 24.6668 32.3132 25.7281 32.3132C26.7895 32.3132 27.3713 31.5204 27.3713 30.523V28.7711C27.3713 28.5537 27.4736 28.4578 27.6334 28.4578C27.8316 28.4578 27.8955 28.5729 27.9339 28.7711C28.081 29.6151 28.4838 30.7595 28.9313 31.335C29.4812 32.0702 30.0118 32.3004 30.5425 32.3004ZM27.8188 25.9771H27.5887C27.3073 25.9771 27.1731 25.8109 27.1731 25.5935V24.4682C27.1731 24.2508 27.3073 24.0846 27.5887 24.0846H27.8188C28.5157 24.0846 28.7331 24.5833 28.7331 25.0117C28.7331 25.4337 28.5157 25.9771 27.8188 25.9771Z" fill="#8B8D8F"/>
<path d="M40.0749 33.2661C38.3678 33.2661 37.4408 34.5384 37.4408 36.1496V39.7237C37.4408 40.0242 37.3385 40.152 37.1594 40.152C37.0252 40.152 36.9293 40.0689 36.8142 39.8387L34.5125 35.3696C33.6366 33.6625 32.7223 33.2661 31.6737 33.2661C29.9347 33.2661 28.9692 34.5768 28.9692 36.2136V46.4433C28.9692 48.0481 29.8963 49.3269 31.6034 49.3269C33.3105 49.3269 34.2376 48.0545 34.2376 46.4433V42.8693C34.2376 42.5688 34.3399 42.4409 34.5189 42.4409C34.6532 42.4409 34.7491 42.5241 34.8641 42.7542L37.1658 47.2234C38.0418 48.9304 38.988 49.3269 40.0046 49.3269C41.7437 49.3269 42.7091 48.0162 42.7091 46.3794V36.1496C42.7091 34.5384 41.782 33.2661 40.0749 33.2661Z" fill="#8B8D8F"/>
<path d="M55.5156 58.8594C55.5156 58.4118 55.8609 58.041 56.334 58.041C56.8071 58.041 57.1524 58.4118 57.1524 58.8594C57.1524 59.3389 56.8071 59.6842 56.334 59.6842C55.8609 59.6778 55.5156 59.3325 55.5156 58.8594ZM56.9734 58.8594C56.9734 58.4502 56.6473 58.2073 56.334 58.2073C56.0143 58.2073 55.6946 58.4438 55.6946 58.8594C55.6946 59.2878 56.0207 59.5179 56.334 59.5179C56.6473 59.5115 56.9734 59.2878 56.9734 58.8594ZM56.0463 59.211V58.5141C56.0463 58.4694 56.0847 58.4246 56.1294 58.4246H56.366C56.5514 58.4246 56.6793 58.5333 56.6793 58.6868C56.6793 58.8146 56.6089 58.9233 56.4427 58.9553L56.6281 59.1599C56.6473 59.1791 56.6537 59.1983 56.6537 59.2174C56.6537 59.2686 56.6217 59.3006 56.5706 59.3006C56.5386 59.3006 56.513 59.2814 56.5002 59.2622L56.2573 58.9745H56.2317V59.211C56.2317 59.2558 56.1933 59.2942 56.1422 59.2942C56.091 59.2878 56.0463 59.2494 56.0463 59.211ZM56.3468 58.8146C56.4491 58.8146 56.5002 58.7635 56.5002 58.6996C56.5002 58.6292 56.4491 58.5909 56.3596 58.5909H56.2189V58.821L56.3468 58.8146Z" fill="#8B8D8F"/>
</svg>
