<svg width="306" height="52" viewBox="0 0 306 52" fill="none" xmlns="http://www.w3.org/2000/svg">
<g clip-path="url(#clip0_23_2793)">
<path d="M68.6226 40.7239C68.6226 40.7239 68.6226 31.3101 68.6226 12.4824C68.6226 12.4824 70.4309 12.4824 74.0476 12.4824C74.0476 12.4824 77.5908 19.3328 84.6773 33.0335C84.6773 33.0335 84.6773 26.1831 84.6773 12.4824C84.6773 12.4824 86.2596 12.4824 89.4242 12.4824C89.4242 12.4824 89.4242 21.8962 89.4242 40.7239C89.4242 40.7239 87.6554 40.7239 84.1178 40.7239C84.1178 40.7239 80.5406 33.8797 73.3864 20.1914C73.3864 20.1914 73.3864 27.0356 73.3864 40.7239C73.3864 40.7239 71.7984 40.7239 68.6226 40.7239Z" fill="white"/>
<path d="M112.769 32.3988C112.769 32.3988 107.801 32.3988 97.8669 32.3988C98.1494 33.6805 98.765 34.6947 99.715 35.4414C100.664 36.188 101.823 36.5613 103.19 36.5613C104.139 36.5613 104.93 36.4057 105.563 36.0946C106.196 35.7711 106.812 35.2236 107.411 34.4521H112.446C112.175 35.4103 111.667 36.3934 110.921 37.4013C108.932 39.9523 106.389 41.2278 103.292 41.2278C101.845 41.2278 100.477 40.9416 99.1891 40.3692C97.9008 39.7968 96.7932 39.0252 95.8664 38.0546C94.9509 37.0716 94.222 35.9018 93.6795 34.5454C93.1369 33.1765 92.8657 31.7331 92.8657 30.2149C92.8657 28.1741 93.3121 26.3013 94.205 24.5965C95.1092 22.8792 96.3355 21.529 97.8838 20.546C99.4436 19.5505 101.151 19.0527 103.004 19.0527C104.891 19.0527 106.592 19.5443 108.107 20.5273C109.621 21.4979 110.802 22.8543 111.65 24.5965C112.509 26.3262 112.938 28.2737 112.938 30.4389C112.938 31.1358 112.882 31.7891 112.769 32.3988ZM97.7313 27.9191H108.395C108.102 26.5626 107.496 25.5236 106.581 24.8018C105.665 24.08 104.496 23.7192 103.072 23.7192C101.692 23.7192 100.545 24.08 99.6302 24.8018C98.7258 25.5111 98.0929 26.5501 97.7313 27.9191Z" fill="white"/>
<path d="M116.312 40.7239C116.312 40.7239 116.312 35.205 116.312 24.1672C116.312 24.1672 115.56 24.1672 114.057 24.1672C114.057 24.1672 114.057 22.6242 114.057 19.5381C114.057 19.5381 114.808 19.5381 116.312 19.5381C116.312 19.5381 116.312 17.1862 116.312 12.4824C116.312 12.4824 117.849 12.4824 120.923 12.4824C120.923 12.4824 120.923 14.8343 120.923 19.5381C120.923 19.5381 121.849 19.5381 123.704 19.5381C123.704 19.5381 123.704 21.0812 123.704 24.1672C123.704 24.1672 122.777 24.1672 120.923 24.1672C120.923 24.1672 120.923 29.6861 120.923 40.7239C120.923 40.7239 119.386 40.7239 116.312 40.7239Z" fill="white"/>
<path d="M135.943 31.2044C135.943 31.2044 135.943 29.5742 135.943 26.314C135.943 26.314 141.538 26.314 152.727 26.314C152.727 26.314 152.727 26.5441 152.727 27.0046C152.727 28.8214 152.406 30.5822 151.761 32.287C151.128 33.9794 150.218 35.5037 149.032 36.8602C146.455 39.772 143.217 41.2279 139.317 41.2279C137.374 41.2279 135.537 40.8485 133.808 40.0894C132.089 39.3303 130.609 38.3037 129.366 37.0095C128.134 35.7029 127.156 34.1412 126.433 32.3244C125.72 30.5075 125.365 28.5787 125.365 26.538C125.365 24.5344 125.715 22.6368 126.416 20.8448C127.128 19.0405 128.083 17.4912 129.281 16.197C130.479 14.9028 131.909 13.8763 133.57 13.1172C135.242 12.3581 137.006 11.9785 138.86 11.9785C140.702 11.9785 142.482 12.3518 144.2 13.0984C145.918 13.8451 147.41 14.8904 148.676 16.2344C149.952 17.5783 150.863 19.0902 151.405 20.7702H145.811C145.019 19.5506 144.019 18.6235 142.809 17.9889C141.601 17.3418 140.25 17.0183 138.758 17.0183C137.526 17.0183 136.367 17.261 135.283 17.7463C134.209 18.2192 133.299 18.8974 132.553 19.7808C131.819 20.6395 131.23 21.691 130.789 22.9354C130.36 24.1673 130.146 25.393 130.146 26.6126C130.146 29.3253 130.999 31.5963 132.705 33.4256C134.412 35.2549 136.525 36.1696 139.047 36.1696C140.742 36.1696 142.244 35.734 143.556 34.8629C144.866 33.9918 145.872 32.7724 146.573 31.2044H135.943Z" fill="white"/>
<path d="M155.763 40.7239C155.763 40.7239 155.763 33.6619 155.763 19.538C155.763 19.538 157.17 19.538 159.984 19.538C159.984 19.538 159.984 20.2286 159.984 21.6099C160.595 20.6268 161.194 19.9549 161.781 19.594C162.368 19.2332 163.16 19.0527 164.155 19.0527H164.511C164.511 19.0527 164.511 20.6828 164.511 23.9432C161.753 24.0178 160.374 25.6853 160.374 28.9456C160.374 28.9456 160.374 32.8717 160.374 40.7239C160.374 40.7239 158.837 40.7239 155.763 40.7239Z" fill="white"/>
<path d="M175.852 19.0527C177.684 19.0527 179.379 19.5505 180.938 20.546C182.498 21.5415 183.73 22.8978 184.634 24.6151C185.538 26.3199 185.991 28.1741 185.991 30.1776C185.991 32.1686 185.532 34.0165 184.618 35.7214C183.713 37.4137 182.476 38.7577 180.905 39.7532C179.333 40.7363 177.626 41.2278 175.785 41.2278C173.931 41.2278 172.213 40.7363 170.631 39.7532C169.059 38.7577 167.817 37.4137 166.901 35.7214C165.986 34.0165 165.528 32.1686 165.528 30.1776C165.528 28.6594 165.793 27.216 166.324 25.8471C166.867 24.4659 167.596 23.2837 168.511 22.3006C169.438 21.305 170.541 20.5148 171.817 19.93C173.095 19.3451 174.439 19.0527 175.852 19.0527ZM175.666 23.7192C174.174 23.7192 172.886 24.3539 171.8 25.6231C170.727 26.88 170.19 28.3857 170.19 30.1402C170.19 31.9072 170.733 33.4193 171.817 34.6761C172.903 35.9329 174.208 36.5613 175.734 36.5613C177.271 36.5613 178.588 35.9391 179.684 34.6947C180.78 33.4379 181.329 31.9322 181.329 30.1776C181.329 28.3608 180.78 26.8301 179.684 25.5858C178.588 24.3414 177.248 23.7192 175.666 23.7192Z" fill="white"/>
<path d="M193.043 40.7239C193.043 40.7239 190.749 33.662 186.16 19.5381C186.16 19.5381 187.815 19.5381 191.127 19.5381C191.127 19.5381 192.275 23.8499 194.569 32.4736C194.569 32.4736 195.642 28.1618 197.79 19.5381C197.79 19.5381 199.016 19.5381 201.469 19.5381C201.469 19.5381 202.525 23.8499 204.639 32.4736C204.639 32.4736 205.809 28.1618 208.149 19.5381C208.149 19.5381 209.787 19.5381 213.065 19.5381C213.065 19.5381 210.754 26.6 206.131 40.7239C206.131 40.7239 205.17 40.7239 203.249 40.7239C203.249 40.7239 202.034 36.1507 199.604 27.0045C199.604 27.0045 198.367 31.5776 195.891 40.7239C195.891 40.7239 194.942 40.7239 193.043 40.7239Z" fill="white"/>
<path d="M215.895 40.7239C215.895 40.7239 215.895 35.205 215.895 24.1672C215.895 24.1672 215.143 24.1672 213.64 24.1672C213.64 24.1672 213.64 22.6242 213.64 19.5381C213.64 19.5381 214.391 19.5381 215.895 19.5381C215.895 19.5381 215.895 17.1862 215.895 12.4824C215.895 12.4824 217.432 12.4824 220.506 12.4824C220.506 12.4824 220.506 14.8343 220.506 19.5381C220.506 19.5381 221.433 19.5381 223.287 19.5381C223.287 19.5381 223.287 21.0812 223.287 24.1672C223.287 24.1672 222.36 24.1672 220.506 24.1672C220.506 24.1672 220.506 29.6861 220.506 40.7239C220.506 40.7239 218.969 40.7239 215.895 40.7239Z" fill="white"/>
<path d="M225.575 40.7239C225.575 40.7239 225.575 31.3101 225.575 12.4824C225.575 12.4824 227.113 12.4824 230.187 12.4824C230.187 12.4824 230.187 15.3196 230.187 20.994C231.509 19.675 233.142 19.0155 235.087 19.0155C236.499 19.0155 237.754 19.3204 238.851 19.9301C239.957 20.5274 240.823 21.3923 241.444 22.5247C241.873 23.3087 242.173 24.1672 242.343 25.1006C242.523 26.0339 242.613 27.2533 242.613 28.759V40.7239H238.002C238.002 40.7239 238.002 37.1152 238.002 29.8977C238.002 27.6578 237.714 26.0711 237.138 25.1378C236.573 24.1921 235.611 23.7193 234.255 23.7193C232.617 23.7193 231.47 24.4286 230.814 25.8472C230.396 26.681 230.187 28.0622 230.187 29.991V40.7239C230.187 40.7239 228.65 40.7239 225.575 40.7239Z" fill="white"/>
<path d="M246.87 40.7239C246.87 40.7239 246.87 31.3101 246.87 12.4824C246.87 12.4824 248.458 12.4824 251.633 12.4824C251.633 12.4824 251.633 20.2287 251.633 35.7215C251.633 35.7215 254.25 35.7215 259.482 35.7215C259.482 35.7215 259.482 37.3889 259.482 40.7239C259.482 40.7239 255.278 40.7239 246.87 40.7239Z" fill="white"/>
<path d="M281.25 19.538C281.25 19.538 281.25 26.6 281.25 40.7239C281.25 40.7239 279.842 40.7239 277.029 40.7239C277.029 40.7239 277.029 39.8092 277.029 37.9799C276.102 39.1372 275.141 39.9709 274.147 40.4811C273.163 40.9789 271.993 41.2278 270.637 41.2278C268.784 41.2278 267.116 40.7611 265.636 39.8278C264.167 38.8821 263.014 37.5693 262.178 35.8894C261.353 34.2095 260.94 32.318 260.94 30.2149C260.94 28.087 261.358 26.1769 262.195 24.4845C263.031 22.7797 264.195 21.4482 265.687 20.49C267.179 19.5318 268.863 19.0527 270.739 19.0527C272.129 19.0527 273.327 19.3203 274.333 19.8554C275.339 20.378 276.238 21.2179 277.029 22.3752V19.538H281.25ZM271.145 23.7192C269.541 23.7192 268.213 24.3414 267.162 25.5858C266.122 26.8301 265.602 28.4105 265.602 30.3269C265.602 32.1811 266.127 33.6868 267.179 34.8441C268.241 35.9889 269.614 36.5613 271.298 36.5613C272.971 36.5613 274.316 35.9765 275.333 34.8067C276.362 33.637 276.876 32.1064 276.876 30.2149C276.876 28.2985 276.339 26.7369 275.265 25.5298C274.203 24.3227 272.83 23.7192 271.145 23.7192Z" fill="white"/>
<path d="M285.014 40.7239C285.014 40.7239 285.014 31.3101 285.014 12.4824C285.014 12.4824 286.551 12.4824 289.626 12.4824C289.626 12.4824 289.626 15.4876 289.626 21.498C290.529 20.5149 291.433 19.8181 292.338 19.4075C293.253 18.9844 294.339 18.7728 295.593 18.7728C297.424 18.7728 299.08 19.2581 300.56 20.2287C302.041 21.1994 303.199 22.5433 304.035 24.2606C304.872 25.9654 305.29 27.8755 305.29 29.991C305.29 32.8655 304.538 35.373 303.036 37.5134C301.272 39.9898 298.899 41.2278 295.915 41.2278C294.491 41.2278 293.27 40.9852 292.253 40.4999C291.236 40.0146 290.23 39.1871 289.236 38.0174V40.7239H285.014ZM294.863 23.4393C293.259 23.4393 291.937 24.0615 290.897 25.3058C289.869 26.5502 289.354 28.1369 289.354 30.0657C289.354 31.9696 289.885 33.5314 290.948 34.7508C292.01 35.9579 293.372 36.5614 295.033 36.5614C296.684 36.5614 298.028 35.9641 299.068 34.7694C300.108 33.5624 300.628 31.9945 300.628 30.0657C300.628 28.112 300.091 26.5191 299.017 25.2872C297.955 24.0553 296.57 23.4393 294.863 23.4393Z" fill="white"/>
<path d="M50.9257 33.6087L44.4052 25.6514L32.7803 37.2317L39.3008 45.1891L50.9257 33.6087Z" fill="#67E452"/>
<path d="M43.5639 51.2995V39.8505V33.675C43.5639 33.2052 43.2186 32.8245 42.7926 32.8245H37.2944H31.2315H26.7578C26.3318 32.8245 25.9865 32.4438 25.9864 31.9741L25.9863 24.62C25.9863 24.1503 26.3316 23.7695 26.7577 23.7695H50.964C51.3899 23.7695 51.7352 24.1503 51.7352 24.62V51.2995C51.7352 51.7692 51.3899 52.15 50.964 52.15H44.3352C43.9092 52.15 43.5639 51.7692 43.5639 51.2995Z" fill="#67E452"/>
<path d="M51.7359 10.7671V0.0429688H23.3613V10.7671H51.7359Z" fill="#67E452"/>
<path d="M39.9136 44.5498C37.1544 47.5554 33.7654 49.7645 30.0468 50.9812C26.3283 52.1979 22.395 52.3846 18.5954 51.5249C14.7958 50.6652 11.2471 48.7855 8.26368 46.0525C5.28037 43.3194 2.9543 39.8172 1.49165 35.8563C0.0290276 31.8953 -0.525056 27.5977 -0.121506 23.3442C0.282044 19.0907 1.63077 15.0126 3.80515 11.4711C5.9796 7.92959 8.91266 5.03406 12.3445 3.04089C15.7762 1.04774 19.6009 0.0185297 23.4797 0.044422L23.4207 10.7684C21.1415 10.7533 18.8941 11.358 16.8774 12.5292C14.8608 13.7004 13.1373 15.402 11.8596 17.483C10.5818 19.5641 9.78927 21.9604 9.5522 24.4599C9.31502 26.9594 9.64062 29.4848 10.5001 31.8123C11.3596 34.1399 12.7264 36.1978 14.4795 37.8039C16.2327 39.4099 18.318 40.5144 20.5506 41.0195C22.7834 41.5248 25.0947 41.4151 27.2798 40.7001C29.4648 39.9851 31.4564 38.6871 33.0777 36.9208L39.9136 44.5498Z" fill="#67E452"/>
</g>
<defs>
<clipPath id="clip0_23_2793">
<rect width="306" height="52" fill="white"/>
</clipPath>
</defs>
</svg>
