<svg width="64" height="63" viewBox="0 0 64 63" fill="none" xmlns="http://www.w3.org/2000/svg">
<g clip-path="url(#clip0_23_2516)">
<path fill-rule="evenodd" clip-rule="evenodd" d="M5.24035 22.0037C10.1505 21.9991 15.0606 22.0028 19.9708 22.0019C19.9708 26.3863 19.9708 30.7716 19.9708 35.156C18.2963 37.104 16.6229 39.052 14.9485 41H-0.000338999C0.0006448 36.6249 -0.00230659 32.2497 0.0016286 27.8737C1.74787 25.9173 3.501 23.9656 5.24035 22.0037ZM4.52513 30.0209C4.52021 31.6177 4.58318 33.2339 4.23885 34.8075C4.0598 35.5063 3.52166 36.2273 2.7297 36.3626C2.72675 36.9742 2.73068 37.5859 2.72773 38.1975C3.47542 38.1966 4.24278 38.0242 4.85077 37.5998C5.48434 37.1689 5.88376 36.4942 6.07658 35.7917C6.42485 34.5286 6.47502 33.2145 6.51929 31.917C7.22959 31.8633 7.94383 31.9041 8.65708 31.892C8.65807 33.9475 8.65708 36.003 8.65708 38.0576C9.37034 38.0604 10.0826 38.065 10.7939 38.0307C10.7939 35.3599 10.7939 32.689 10.7939 30.0181C8.70431 30.0228 6.6157 30.0181 4.52612 30.0209H4.52513ZM27.2568 22.0019C32.1659 22.0019 37.0751 22 41.9842 22.0019C41.9842 26.3788 41.9813 30.7568 41.9842 35.1337C40.3187 37.0975 38.6265 39.0418 36.9531 40.9991C31.9721 40.9991 26.9921 41 22.0112 40.9991C22.0151 36.6156 22.0023 32.2331 22.018 27.8496C23.7761 25.9108 25.5046 23.9462 27.2568 22.0019ZM28.5416 29.9236C27.4535 30.1256 26.4432 30.7132 25.7968 31.5677C24.8465 32.7965 24.7028 34.5036 25.3236 35.8937C25.8401 37.0595 26.9685 37.9584 28.2721 38.2522C29.2037 38.4561 30.2013 38.4311 31.1133 38.154C31.8491 37.9325 32.4768 37.4802 32.9923 36.9474C32.4916 36.4757 31.9908 36.004 31.4901 35.5322C30.824 36.345 29.5657 36.7157 28.5721 36.2273C27.1791 35.5545 26.9105 33.6111 27.8785 32.512C28.3134 32.0069 29.0168 31.7187 29.7064 31.7771C30.4089 31.8086 31.0434 32.1923 31.4664 32.7066C31.9829 32.2191 32.5004 31.7326 33.0169 31.2451C31.9692 30.0098 30.1354 29.6178 28.5416 29.9236ZM47.6942 23.7515C48.2294 23.1779 48.7203 22.557 49.2781 22.0074C54.1823 21.9926 59.0876 22.0083 63.9918 22C64.0036 26.377 63.9888 30.754 63.9997 35.131C62.3203 37.0892 60.639 39.0446 58.9567 41C53.9787 40.9981 49.0007 41.0028 44.0236 40.9981C44.0246 36.6212 44.0276 32.2451 44.0217 27.869C45.2396 26.491 46.4713 25.125 47.6942 23.7515ZM47.6165 29.9978C47.6145 32.7381 47.6165 35.4785 47.6165 38.2198H49.8792C49.8802 37.5544 49.8772 36.8899 49.8802 36.2245C50.436 36.2227 50.9929 36.2291 51.5487 36.2227C52.4302 36.1856 53.3363 35.9048 53.9698 35.3061C54.6516 34.7056 54.9792 33.8039 54.9468 32.9355C54.9674 32.1024 54.5896 31.2526 53.8882 30.7336C53.1799 30.1989 52.2492 30.0005 51.3569 29.9978C50.1104 29.9978 48.8639 29.9978 47.6175 29.9978H47.6165ZM49.8723 31.879C49.8871 32.7112 49.8704 33.5444 49.8812 34.3775C50.6899 34.3321 51.6235 34.5406 52.3072 34.0179C52.9801 33.5342 52.8395 32.4064 52.077 32.0699C51.3923 31.7613 50.6053 31.892 49.8723 31.879Z" fill="#8B8D8F"/>
</g>
<defs>
<clipPath id="clip0_23_2516">
<rect width="64" height="63" fill="white"/>
</clipPath>
</defs>
</svg>
