<svg width="195" height="33" viewBox="0 0 195 33" fill="none" xmlns="http://www.w3.org/2000/svg">
<g clip-path="url(#clip0_23_723)">
<path d="M43.73 25.8438C43.73 25.8438 43.73 19.8696 43.73 7.92128C43.73 7.92128 44.8824 7.92128 47.1871 7.92128C47.1871 7.92128 49.4451 12.2687 53.9609 20.9633C53.9609 20.9633 53.9609 16.616 53.9609 7.92128C53.9609 7.92128 54.9693 7.92128 56.9859 7.92128C56.9859 7.92128 56.9859 13.8954 56.9859 25.8438C56.9859 25.8438 55.8588 25.8438 53.6044 25.8438C53.6044 25.8438 51.3248 21.5003 46.7658 12.8135C46.7658 12.8135 46.7658 17.1569 46.7658 25.8438C46.7658 25.8438 45.7538 25.8438 43.73 25.8438Z" fill="#212629"/>
<path d="M71.8625 20.5606C71.8625 20.5606 68.6971 20.5606 62.3662 20.5606C62.5463 21.374 62.9386 22.0176 63.5439 22.4914C64.1486 22.9653 64.8871 23.2021 65.7587 23.2021C66.3634 23.2021 66.8674 23.1034 67.2708 22.906C67.6742 22.7007 68.0667 22.3533 68.4484 21.8636H71.6571C71.4841 22.4717 71.1605 23.0956 70.6848 23.7352C69.4173 25.3541 67.7971 26.1636 65.8236 26.1636C64.9013 26.1636 64.0297 25.982 63.2088 25.6187C62.3878 25.2554 61.682 24.7658 61.0914 24.1498C60.508 23.526 60.0435 22.7836 59.6978 21.9228C59.352 21.0541 59.1792 20.1381 59.1792 19.1746C59.1792 17.8795 59.4636 16.691 60.0327 15.6091C60.6089 14.5193 61.3903 13.6624 62.377 13.0386C63.371 12.4068 64.4588 12.091 65.6398 12.091C66.8424 12.091 67.9262 12.4029 68.8917 13.0267C69.8565 13.6427 70.6092 14.5035 71.1497 15.6091C71.6969 16.7068 71.9706 17.9427 71.9706 19.3168C71.9706 19.7591 71.9348 20.1736 71.8625 20.5606ZM62.2798 17.7177H69.0754C68.8883 16.8568 68.5025 16.1975 67.9194 15.7394C67.3357 15.2814 66.5904 15.0524 65.683 15.0524C64.804 15.0524 64.073 15.2814 63.4899 15.7394C62.9136 16.1896 62.5103 16.8489 62.2798 17.7177Z" fill="#212629"/>
<path d="M74.1202 25.8438C74.1202 25.8438 74.1202 22.3414 74.1202 15.3366C74.1202 15.3366 73.6412 15.3366 72.6831 15.3366C72.6831 15.3366 72.6831 14.3574 72.6831 12.3989C72.6831 12.3989 73.1621 12.3989 74.1202 12.3989C74.1202 12.3989 74.1202 10.9063 74.1202 7.92128C74.1202 7.92128 75.0999 7.92128 77.0586 7.92128C77.0586 7.92128 77.0586 9.41385 77.0586 12.3989C77.0586 12.3989 77.6491 12.3989 78.8308 12.3989C78.8308 12.3989 78.8308 13.3782 78.8308 15.3366C78.8308 15.3366 78.2403 15.3366 77.0586 15.3366C77.0586 15.3366 77.0586 18.839 77.0586 25.8438C77.0586 25.8438 76.0796 25.8438 74.1202 25.8438Z" fill="#212629"/>
<path d="M86.6306 19.8025C86.6306 19.8025 86.6306 18.768 86.6306 16.6989C86.6306 16.6989 90.1959 16.6989 97.326 16.6989C97.326 16.6989 97.326 16.845 97.326 17.1372C97.326 18.2902 97.1213 19.4076 96.7105 20.4895C96.3071 21.5635 95.7274 22.5309 94.9714 23.3917C93.3289 25.2396 91.2655 26.1636 88.7805 26.1636C87.542 26.1636 86.3718 25.9228 85.2698 25.441C84.1746 24.9593 83.2314 24.3078 82.4389 23.4865C81.6538 22.6573 81.0308 21.6662 80.57 20.5132C80.116 19.3602 79.8896 18.1362 79.8896 16.8411C79.8896 15.5696 80.1126 14.3653 80.5592 13.2281C81.0132 12.0831 81.6213 11.0999 82.3848 10.2785C83.1483 9.45723 84.0597 8.80578 85.1185 8.32404C86.184 7.84231 87.3076 7.60144 88.4893 7.60144C89.6629 7.60144 90.7973 7.83832 91.8925 8.31215C92.987 8.78598 93.9377 9.4494 94.7444 10.3023C95.5579 11.1551 96.1382 12.1146 96.4835 13.1808H92.9188C92.4141 12.4068 91.777 11.8185 91.006 11.4157C90.2358 11.0051 89.375 10.7997 88.4244 10.7997C87.6393 10.7997 86.9008 10.9538 86.2096 11.2617C85.5252 11.5619 84.9455 11.9923 84.4698 12.5529C84.0023 13.0978 83.6273 13.7651 83.3462 14.5548C83.0726 15.3366 82.9361 16.1145 82.9361 16.8885C82.9361 18.61 83.48 20.0512 84.5671 21.2121C85.6549 22.373 87.0015 22.9534 88.6082 22.9534C89.6885 22.9534 90.6459 22.677 91.4817 22.1242C92.3168 21.5714 92.958 20.7975 93.4046 19.8025H86.6306Z" fill="#212629"/>
<path d="M99.2607 25.8438C99.2607 25.8438 99.2607 21.3622 99.2607 12.3989C99.2607 12.3989 100.157 12.3989 101.95 12.3989C101.95 12.3989 101.95 12.8372 101.95 13.7138C102.34 13.0899 102.721 12.6635 103.096 12.4345C103.47 12.2055 103.975 12.091 104.608 12.091H104.835C104.835 12.091 104.835 13.1255 104.835 15.1945C103.077 15.2419 102.199 16.3001 102.199 18.3691C102.199 18.3691 102.199 20.8607 102.199 25.8438C102.199 25.8438 101.219 25.8438 99.2607 25.8438Z" fill="#212629"/>
<path d="M112.063 12.091C113.23 12.091 114.31 12.4068 115.304 13.0386C116.298 13.6703 117.083 14.5311 117.659 15.6209C118.235 16.7028 118.523 17.8795 118.523 19.151C118.523 20.4145 118.231 21.5872 117.648 22.6691C117.072 23.7431 116.284 24.596 115.282 25.2278C114.281 25.8517 113.193 26.1636 112.02 26.1636C110.839 26.1636 109.743 25.8517 108.735 25.2278C107.734 24.596 106.942 23.7431 106.358 22.6691C105.775 21.5872 105.483 20.4145 105.483 19.151C105.483 18.1875 105.652 17.2715 105.991 16.4028C106.337 15.5262 106.802 14.776 107.385 14.1521C107.975 13.5203 108.678 13.0188 109.491 12.6477C110.305 12.2765 111.162 12.091 112.063 12.091ZM111.944 15.0524C110.993 15.0524 110.172 15.4551 109.481 16.2606C108.797 17.0582 108.454 18.0138 108.454 19.1273C108.454 20.2486 108.8 21.2082 109.491 22.0058C110.183 22.8034 111.015 23.2021 111.987 23.2021C112.967 23.2021 113.806 22.8073 114.505 22.0176C115.203 21.22 115.553 20.2644 115.553 19.151C115.553 17.998 115.203 17.0266 114.505 16.2369C113.806 15.4472 112.952 15.0524 111.944 15.0524Z" fill="#212629"/>
<path d="M123.018 25.8438C123.018 25.8438 121.556 21.3622 118.631 12.3989C118.631 12.3989 119.686 12.3989 121.797 12.3989C121.797 12.3989 122.528 15.1353 123.99 20.608C123.99 20.608 124.674 17.8717 126.043 12.3989C126.043 12.3989 126.824 12.3989 128.387 12.3989C128.387 12.3989 129.06 15.1353 130.407 20.608C130.407 20.608 131.152 17.8717 132.644 12.3989C132.644 12.3989 133.687 12.3989 135.777 12.3989C135.777 12.3989 134.304 16.8805 131.358 25.8438C131.358 25.8438 130.746 25.8438 129.521 25.8438C129.521 25.8438 128.747 22.9416 127.199 17.1372C127.199 17.1372 126.41 20.0394 124.832 25.8438C124.832 25.8438 124.228 25.8438 123.018 25.8438Z" fill="#212629"/>
<path d="M137.58 25.8438C137.58 25.8438 137.58 22.3414 137.58 15.3366C137.58 15.3366 137.101 15.3366 136.143 15.3366C136.143 15.3366 136.143 14.3574 136.143 12.3989C136.143 12.3989 136.622 12.3989 137.58 12.3989C137.58 12.3989 137.58 10.9063 137.58 7.92128C137.58 7.92128 138.56 7.92128 140.519 7.92128C140.519 7.92128 140.519 9.41385 140.519 12.3989C140.519 12.3989 141.11 12.3989 142.291 12.3989C142.291 12.3989 142.291 13.3782 142.291 15.3366C142.291 15.3366 141.7 15.3366 140.519 15.3366C140.519 15.3366 140.519 18.839 140.519 25.8438C140.519 25.8438 139.54 25.8438 137.58 25.8438Z" fill="#212629"/>
<path d="M143.749 25.8438C143.749 25.8438 143.749 19.8696 143.749 7.92128C143.749 7.92128 144.729 7.92128 146.688 7.92128C146.688 7.92128 146.688 9.72181 146.688 13.3229C147.531 12.4858 148.571 12.0672 149.81 12.0672C150.71 12.0672 151.51 12.2607 152.209 12.6477C152.914 13.0267 153.465 13.5756 153.861 14.2942C154.135 14.7918 154.326 15.3366 154.434 15.929C154.549 16.5212 154.607 17.2951 154.607 18.2507V25.8438H151.668C151.668 25.8438 151.668 23.5536 151.668 18.9733C151.668 17.5518 151.484 16.5449 151.118 15.9526C150.757 15.3524 150.145 15.0524 149.281 15.0524C148.237 15.0524 147.506 15.5025 147.087 16.4028C146.821 16.9319 146.688 17.8085 146.688 19.0325V25.8438C146.688 25.8438 145.708 25.8438 143.749 25.8438Z" fill="#212629"/>
<path d="M157.319 25.8438C157.319 25.8438 157.319 19.8696 157.319 7.92128C157.319 7.92128 158.331 7.92128 160.355 7.92128C160.355 7.92128 160.355 12.8372 160.355 22.6691C160.355 22.6691 162.022 22.6691 165.356 22.6691C165.356 22.6691 165.356 23.7273 165.356 25.8438C165.356 25.8438 162.677 25.8438 157.319 25.8438Z" fill="#212629"/>
<path d="M179.228 12.3989C179.228 12.3989 179.228 16.8805 179.228 25.8438C179.228 25.8438 178.331 25.8438 176.538 25.8438C176.538 25.8438 176.538 25.2633 176.538 24.1024C175.947 24.8369 175.335 25.366 174.701 25.6897C174.074 26.0057 173.329 26.1636 172.465 26.1636C171.284 26.1636 170.221 25.8674 169.278 25.2752C168.342 24.675 167.607 23.8418 167.074 22.7757C166.548 21.7096 166.286 20.5093 166.286 19.1746C166.286 17.8242 166.552 16.612 167.085 15.538C167.618 14.4561 168.36 13.6112 169.311 13.0031C170.261 12.395 171.334 12.091 172.53 12.091C173.416 12.091 174.179 12.2607 174.82 12.6003C175.461 12.932 176.034 13.465 176.538 14.1994V12.3989H179.228ZM172.789 15.0524C171.766 15.0524 170.92 15.4472 170.25 16.2369C169.588 17.0266 169.256 18.0295 169.256 19.2457C169.256 20.4224 169.591 21.378 170.261 22.1124C170.938 22.8389 171.813 23.2021 172.886 23.2021C173.952 23.2021 174.81 22.831 175.458 22.0887C176.113 21.3463 176.441 20.375 176.441 19.1746C176.441 17.9585 176.099 16.9674 175.414 16.2014C174.737 15.4353 173.862 15.0524 172.789 15.0524Z" fill="#212629"/>
<path d="M181.626 25.8438C181.626 25.8438 181.626 19.8696 181.626 7.92128C181.626 7.92128 182.606 7.92128 184.566 7.92128C184.566 7.92128 184.566 9.82842 184.566 13.6427C185.141 13.0188 185.717 12.5766 186.294 12.316C186.877 12.0475 187.569 11.9133 188.368 11.9133C189.535 11.9133 190.59 12.2212 191.533 12.8372C192.477 13.4532 193.215 14.3061 193.748 15.3959C194.281 16.4778 194.547 17.69 194.547 19.0325C194.547 20.8567 194.068 22.448 193.111 23.8063C191.987 25.3779 190.475 26.1636 188.573 26.1636C187.666 26.1636 186.888 26.0096 186.24 25.7016C185.592 25.3936 184.951 24.8685 184.317 24.1262V25.8438H181.626ZM187.903 14.8747C186.881 14.8747 186.038 15.2695 185.376 16.0592C184.72 16.8489 184.393 17.8558 184.393 19.0799C184.393 20.2882 184.731 21.2793 185.408 22.0531C186.085 22.8192 186.953 23.2021 188.011 23.2021C189.063 23.2021 189.92 22.8231 190.583 22.065C191.246 21.299 191.577 20.304 191.577 19.0799C191.577 17.84 191.235 16.8292 190.55 16.0474C189.873 15.2656 188.991 14.8747 187.903 14.8747Z" fill="#212629"/>
<path d="M32.4529 21.3286L28.2977 16.2788L20.8896 23.6279L25.0449 28.6778L32.4529 21.3286Z" fill="#67E452"/>
<path d="M27.761 32.5553V25.2896V21.3705C27.761 21.0724 27.5409 20.8308 27.2694 20.8308H23.7657H19.9021H17.0512C16.7797 20.8308 16.5597 20.5892 16.5596 20.2911L16.5596 15.6241C16.5596 15.326 16.7796 15.0844 17.0511 15.0844H32.4767C32.7481 15.0844 32.9682 15.326 32.9682 15.6241V32.5553C32.9682 32.8533 32.7481 33.095 32.4767 33.095H28.2525C27.981 33.095 27.761 32.8533 27.761 32.5553Z" fill="#67E452"/>
<path d="M32.9685 6.83316V0.0274811H14.8867V6.83316H32.9685Z" fill="#67E452"/>
<path d="M25.435 28.2719C23.6766 30.1793 21.517 31.5812 19.1473 32.3534C16.7777 33.1255 14.2712 33.244 11.8499 32.6984C9.42854 32.1528 7.16709 30.96 5.26589 29.2255C3.36476 27.4911 1.88247 25.2685 0.950387 22.7549C0.0183208 20.2411 -0.334771 17.5138 -0.0776073 14.8145C0.179557 12.1151 1.03904 9.52715 2.42467 7.27962C3.81035 5.03215 5.67946 3.1946 7.86639 1.92971C10.0533 0.664825 12.4906 0.0116724 14.9623 0.028104L14.9248 6.83369C13.4723 6.8241 12.0402 7.20787 10.755 7.95114C9.46996 8.69442 8.37163 9.77424 7.55741 11.0949C6.74312 12.4156 6.23808 13.9363 6.08701 15.5226C5.93586 17.1088 6.14336 18.7114 6.69103 20.1885C7.23878 21.6656 8.10975 22.9716 9.22693 23.9908C10.3442 25.01 11.673 25.711 13.0958 26.0315C14.5187 26.3522 15.9916 26.2825 17.384 25.8289C18.7764 25.3751 20.0456 24.5513 21.0788 23.4304L25.435 28.2719Z" fill="#67E452"/>
</g>
<defs>
<clipPath id="clip0_23_723">
<rect width="195" height="33" fill="white"/>
</clipPath>
</defs>
</svg>
